<svg xmlns="http://www.w3.org/2000/svg" enable-background="new 0 0 64 64" viewBox="0 0 64 64"><g transform="translate(28 278)"><path fill="#134563" d="M4-222.1c-13.2,0-23.9-10.7-23.9-23.9c0-13.2,10.7-23.9,23.9-23.9s23.9,10.7,23.9,23.9     C27.9-232.8,17.2-222.1,4-222.1L4-222.1z M4-267.3c-11.7,0-21.3,9.6-21.3,21.3s9.6,21.3,21.3,21.3s21.3-9.6,21.3-21.3     S15.7-267.3,4-267.3L4-267.3z"/><polygon fill="#134563" points="-8.7 -247.4 16.7 -247.4 16.7 -244.6 -8.7 -244.6"/><polygon fill="#134563" points="2.6 -258.7 5.4 -258.7 5.4 -233.3 2.6 -233.3"/></g></svg>